# xmcd CD database file
#
# Track frame offsets:
#	150
#	19450
#	36907
#	58325
#	79055
#	96895
#	129235
#	153452
#	166365
#
# Disc length: 2624 seconds
#
# Revision: 0
# Processed by: cddbd v1.5.1PL0 Copyright (c) Steve Scherf et al.
# Submitted via: CDex 1.50beta10
#
DISCID=730a3e09
DTITLE=Thelonious Monk - Criss Cross
DYEAR=1963
DGENRE=Jazz
TTITLE0=Hackensack
TTITLE1=Tea for Two
TTITLE2=Criss Cross
TTITLE3=Eronel
TTITLE4=Rhythm a ning
TTITLE5=Don't Blame Me
TTITLE6=Think of One
TTITLE7=Crepuscule with Nellie
TTITLE8=Pannonica
EXTD=YEAR: 1963
EXTT0=
EXTT1=
EXTT2=
EXTT3=
EXTT4=
EXTT5=
EXTT6=
EXTT7=
EXTT8=
PLAYORDER=
